<svg width="349" height="354" viewBox="0 0 349 354" fill="none" xmlns="http://www.w3.org/2000/svg">
<path d="M314.449 73.0119L314.451 73.015C342.452 111.431 353.141 154.69 345.705 203.582C338.27 252.474 315.268 290.557 277.086 319.033C238.908 346.986 196.379 357.335 148.311 349.775L148.309 349.774C136.684 347.971 125.633 345.199 115.156 341.553L152.896 266.422C153.821 266.643 154.732 266.891 155.662 267.144C155.875 267.202 156.089 267.26 156.304 267.318C157.703 267.697 159.148 268.072 160.68 268.34L160.689 268.342L160.699 268.343C186.337 272.339 208.928 267.079 228.607 252.859L228.619 252.851C248.307 238.202 260.205 217.338 264.233 190.867C268.261 164.398 263.1 140.902 248.589 121.295C244.188 115.294 239.12 110.185 233.673 105.593L271.207 30.7775C287.511 41.7568 301.957 55.734 314.449 73.0119Z" stroke="#5269FB" stroke-width="2"/>
<path d="M100.65 232.745L100.655 232.752L100.661 232.759C105.062 238.658 110.129 243.663 115.473 248.241L77.9325 323.068C61.4207 312.089 46.7757 298.211 34.2839 281.036C6.38684 242.207 -3.79475 198.947 3.64179 150.049L3.64209 150.047C10.9768 101.148 33.5737 62.9671 71.6433 35.0177L71.6493 35.0132C109.823 6.54434 152.862 -3.70443 200.935 3.85665L200.937 3.85697C212.562 5.6604 223.613 8.43225 234.09 12.0781L196.35 87.2092C195.425 86.9888 194.515 86.7408 193.585 86.4876C193.372 86.4296 193.158 86.3713 192.942 86.313C191.543 85.9345 190.099 85.5597 188.566 85.2911L188.557 85.2895L188.548 85.288C163.01 81.2924 140.313 86.6571 120.633 101.297C101.037 115.429 89.142 136.3 85.1146 162.764C81.086 189.237 86.25 212.727 100.65 232.745Z" stroke="#5269FB" stroke-width="2"/>
</svg>
